<svg width="328" height="59" viewBox="0 0 328 59" fill="none" xmlns="http://www.w3.org/2000/svg">
<g filter="url(#filter0_d_15_138)">
<rect x="4" width="320" height="51" rx="8" fill="#228B22"/>
<path d="M48.6 27.025C48.4 26.925 47.1 26.325 46.9 26.225C46.7 26.125 46.5 26.125 46.3 26.325C46.1 26.525 45.7 27.125 45.5 27.325C45.4 27.525 45.2 27.525 45 27.425C44.3 27.125 43.6 26.725 43 26.225C42.5 25.725 42 25.125 41.6 24.525C41.5 24.325 41.6 24.125 41.7 24.025C41.8 23.925 41.9 23.725 42.1 23.625C42.2 23.525 42.3 23.325 42.3 23.225C42.4 23.125 42.4 22.925 42.3 22.825C42.2 22.725 41.7 21.525 41.5 21.025C41.4 20.325 41.2 20.325 41 20.325H40.5C40.3 20.325 40 20.525 39.9 20.625C39.3 21.225 39 21.925 39 22.725C39.1 23.625 39.4 24.525 40 25.325C41.1 26.925 42.5 28.225 44.2 29.025C44.7 29.225 45.1 29.425 45.6 29.525C46.1 29.725 46.6 29.725 47.2 29.625C47.9 29.525 48.5 29.025 48.9 28.425C49.1 28.025 49.1 27.625 49 27.225L48.6 27.025ZM51.1 17.925C47.2 14.025 40.9 14.025 37 17.925C33.8 21.125 33.2 26.025 35.4 29.925L34 35.025L39.3 33.625C40.8 34.425 42.4 34.825 44 34.825C49.5 34.825 53.9 30.425 53.9 24.925C54 22.325 52.9 19.825 51.1 17.925ZM48.4 31.925C47.1 32.725 45.6 33.225 44 33.225C42.5 33.225 41.1 32.825 39.8 32.125L39.5 31.925L36.4 32.725L37.2 29.725L37 29.425C34.6 25.425 35.8 20.425 39.7 17.925C43.6 15.425 48.6 16.725 51 20.525C53.4 24.425 52.3 29.525 48.4 31.925Z" fill="white"/>
<path d="M60.66 24.3H67.38V26.9H60.66V24.3ZM60.9 32H57.66V18H68.24V20.6H60.9V32ZM68.027 32L74.267 18H77.467L83.727 32H80.327L75.207 19.64H76.487L71.347 32H68.027ZM71.147 29L72.007 26.54H79.207L80.087 29H71.147ZM85.1795 32V18H88.4195V29.36H95.4395V32H85.1795ZM100.23 23.64H106.97V26.16H100.23V23.64ZM100.47 29.4H108.09V32H97.2498V18H107.83V20.6H100.47V29.4ZM123.032 32.24C121.952 32.24 120.945 32.0667 120.012 31.72C119.092 31.36 118.292 30.8533 117.612 30.2C116.932 29.5467 116.399 28.78 116.012 27.9C115.639 27.02 115.452 26.0533 115.452 25C115.452 23.9467 115.639 22.98 116.012 22.1C116.399 21.22 116.932 20.4533 117.612 19.8C118.305 19.1467 119.112 18.6467 120.032 18.3C120.952 17.94 121.959 17.76 123.052 17.76C124.265 17.76 125.359 17.9733 126.332 18.4C127.319 18.8133 128.145 19.4267 128.812 20.24L126.732 22.16C126.252 21.6133 125.719 21.2067 125.132 20.94C124.545 20.66 123.905 20.52 123.212 20.52C122.559 20.52 121.959 20.6267 121.412 20.84C120.865 21.0533 120.392 21.36 119.992 21.76C119.592 22.16 119.279 22.6333 119.052 23.18C118.839 23.7267 118.732 24.3333 118.732 25C118.732 25.6667 118.839 26.2733 119.052 26.82C119.279 27.3667 119.592 27.84 119.992 28.24C120.392 28.64 120.865 28.9467 121.412 29.16C121.959 29.3733 122.559 29.48 123.212 29.48C123.905 29.48 124.545 29.3467 125.132 29.08C125.719 28.8 126.252 28.38 126.732 27.82L128.812 29.74C128.145 30.5533 127.319 31.1733 126.332 31.6C125.359 32.0267 124.259 32.24 123.032 32.24ZM137.507 32.24C136.4 32.24 135.374 32.06 134.427 31.7C133.494 31.34 132.68 30.8333 131.987 30.18C131.307 29.5267 130.774 28.76 130.387 27.88C130.014 27 129.827 26.04 129.827 25C129.827 23.96 130.014 23 130.387 22.12C130.774 21.24 131.314 20.4733 132.007 19.82C132.7 19.1667 133.514 18.66 134.447 18.3C135.38 17.94 136.394 17.76 137.487 17.76C138.594 17.76 139.607 17.94 140.527 18.3C141.46 18.66 142.267 19.1667 142.947 19.82C143.64 20.4733 144.18 21.24 144.567 22.12C144.954 22.9867 145.147 23.9467 145.147 25C145.147 26.04 144.954 27.0067 144.567 27.9C144.18 28.78 143.64 29.5467 142.947 30.2C142.267 30.84 141.46 31.34 140.527 31.7C139.607 32.06 138.6 32.24 137.507 32.24ZM137.487 29.48C138.114 29.48 138.687 29.3733 139.207 29.16C139.74 28.9467 140.207 28.64 140.607 28.24C141.007 27.84 141.314 27.3667 141.527 26.82C141.754 26.2733 141.867 25.6667 141.867 25C141.867 24.3333 141.754 23.7267 141.527 23.18C141.314 22.6333 141.007 22.16 140.607 21.76C140.22 21.36 139.76 21.0533 139.227 20.84C138.694 20.6267 138.114 20.52 137.487 20.52C136.86 20.52 136.28 20.6267 135.747 20.84C135.227 21.0533 134.767 21.36 134.367 21.76C133.967 22.16 133.654 22.6333 133.427 23.18C133.214 23.7267 133.107 24.3333 133.107 25C133.107 25.6533 133.214 26.26 133.427 26.82C133.654 27.3667 133.96 27.84 134.347 28.24C134.747 28.64 135.214 28.9467 135.747 29.16C136.28 29.3733 136.86 29.48 137.487 29.48ZM147.582 32V18H150.262L156.222 27.88H154.802L160.662 18H163.322L163.362 32H160.322L160.302 22.66H160.862L156.182 30.52H154.722L149.942 22.66H150.622V32H147.582ZM166.683 32V18H169.923V32H166.683ZM180.006 32.24C178.899 32.24 177.879 32.0667 176.946 31.72C176.026 31.36 175.219 30.8533 174.526 30.2C173.846 29.5467 173.313 28.78 172.926 27.9C172.553 27.02 172.366 26.0533 172.366 25C172.366 23.9467 172.553 22.98 172.926 22.1C173.313 21.22 173.853 20.4533 174.546 19.8C175.239 19.1467 176.053 18.6467 176.986 18.3C177.919 17.94 178.946 17.76 180.066 17.76C181.306 17.76 182.419 17.9667 183.406 18.38C184.406 18.7933 185.246 19.3933 185.926 20.18L183.846 22.1C183.339 21.5667 182.786 21.1733 182.186 20.92C181.586 20.6533 180.933 20.52 180.226 20.52C179.546 20.52 178.926 20.6267 178.366 20.84C177.806 21.0533 177.319 21.36 176.906 21.76C176.506 22.16 176.193 22.6333 175.966 23.18C175.753 23.7267 175.646 24.3333 175.646 25C175.646 25.6533 175.753 26.2533 175.966 26.8C176.193 27.3467 176.506 27.8267 176.906 28.24C177.319 28.64 177.799 28.9467 178.346 29.16C178.906 29.3733 179.519 29.48 180.186 29.48C180.826 29.48 181.446 29.38 182.046 29.18C182.659 28.9667 183.253 28.6133 183.826 28.12L185.666 30.46C184.906 31.0333 184.019 31.4733 183.006 31.78C182.006 32.0867 181.006 32.24 180.006 32.24ZM182.706 30.04V24.78H185.666V30.46L182.706 30.04ZM195.476 32.24C194.369 32.24 193.342 32.06 192.396 31.7C191.462 31.34 190.649 30.8333 189.956 30.18C189.276 29.5267 188.742 28.76 188.356 27.88C187.982 27 187.796 26.04 187.796 25C187.796 23.96 187.982 23 188.356 22.12C188.742 21.24 189.282 20.4733 189.976 19.82C190.669 19.1667 191.482 18.66 192.416 18.3C193.349 17.94 194.362 17.76 195.456 17.76C196.562 17.76 197.576 17.94 198.496 18.3C199.429 18.66 200.236 19.1667 200.916 19.82C201.609 20.4733 202.149 21.24 202.536 22.12C202.922 22.9867 203.116 23.9467 203.116 25C203.116 26.04 202.922 27.0067 202.536 27.9C202.149 28.78 201.609 29.5467 200.916 30.2C200.236 30.84 199.429 31.34 198.496 31.7C197.576 32.06 196.569 32.24 195.476 32.24ZM195.456 29.48C196.082 29.48 196.656 29.3733 197.176 29.16C197.709 28.9467 198.176 28.64 198.576 28.24C198.976 27.84 199.282 27.3667 199.496 26.82C199.722 26.2733 199.836 25.6667 199.836 25C199.836 24.3333 199.722 23.7267 199.496 23.18C199.282 22.6333 198.976 22.16 198.576 21.76C198.189 21.36 197.729 21.0533 197.196 20.84C196.662 20.6267 196.082 20.52 195.456 20.52C194.829 20.52 194.249 20.6267 193.716 20.84C193.196 21.0533 192.736 21.36 192.336 21.76C191.936 22.16 191.622 22.6333 191.396 23.18C191.182 23.7267 191.076 24.3333 191.076 25C191.076 25.6533 191.182 26.26 191.396 26.82C191.622 27.3667 191.929 27.84 192.316 28.24C192.716 28.64 193.182 28.9467 193.716 29.16C194.249 29.3733 194.829 29.48 195.456 29.48ZM209.375 32L215.615 18H218.815L225.075 32H221.675L216.555 19.64H217.835L212.695 32H209.375ZM212.495 29L213.355 26.54H220.555L221.435 29H212.495ZM233.092 32.24C231.985 32.24 230.965 32.0667 230.032 31.72C229.112 31.36 228.305 30.8533 227.612 30.2C226.932 29.5467 226.399 28.78 226.012 27.9C225.639 27.02 225.452 26.0533 225.452 25C225.452 23.9467 225.639 22.98 226.012 22.1C226.399 21.22 226.939 20.4533 227.632 19.8C228.325 19.1467 229.139 18.6467 230.072 18.3C231.005 17.94 232.032 17.76 233.152 17.76C234.392 17.76 235.505 17.9667 236.492 18.38C237.492 18.7933 238.332 19.3933 239.012 20.18L236.932 22.1C236.425 21.5667 235.872 21.1733 235.272 20.92C234.672 20.6533 234.019 20.52 233.312 20.52C232.632 20.52 232.012 20.6267 231.452 20.84C230.892 21.0533 230.405 21.36 229.992 21.76C229.592 22.16 229.279 22.6333 229.052 23.18C228.839 23.7267 228.732 24.3333 228.732 25C228.732 25.6533 228.839 26.2533 229.052 26.8C229.279 27.3467 229.592 27.8267 229.992 28.24C230.405 28.64 230.885 28.9467 231.432 29.16C231.992 29.3733 232.605 29.48 233.272 29.48C233.912 29.48 234.532 29.38 235.132 29.18C235.745 28.9667 236.339 28.6133 236.912 28.12L238.752 30.46C237.992 31.0333 237.105 31.4733 236.092 31.78C235.092 32.0867 234.092 32.24 233.092 32.24ZM235.792 30.04V24.78H238.752V30.46L235.792 30.04ZM248.562 32.24C247.455 32.24 246.428 32.06 245.482 31.7C244.548 31.34 243.735 30.8333 243.042 30.18C242.362 29.5267 241.828 28.76 241.442 27.88C241.068 27 240.882 26.04 240.882 25C240.882 23.96 241.068 23 241.442 22.12C241.828 21.24 242.368 20.4733 243.062 19.82C243.755 19.1667 244.568 18.66 245.502 18.3C246.435 17.94 247.448 17.76 248.542 17.76C249.648 17.76 250.662 17.94 251.582 18.3C252.515 18.66 253.322 19.1667 254.002 19.82C254.695 20.4733 255.235 21.24 255.622 22.12C256.008 22.9867 256.202 23.9467 256.202 25C256.202 26.04 256.008 27.0067 255.622 27.9C255.235 28.78 254.695 29.5467 254.002 30.2C253.322 30.84 252.515 31.34 251.582 31.7C250.662 32.06 249.655 32.24 248.562 32.24ZM248.542 29.48C249.168 29.48 249.742 29.3733 250.262 29.16C250.795 28.9467 251.262 28.64 251.662 28.24C252.062 27.84 252.368 27.3667 252.582 26.82C252.808 26.2733 252.922 25.6667 252.922 25C252.922 24.3333 252.808 23.7267 252.582 23.18C252.368 22.6333 252.062 22.16 251.662 21.76C251.275 21.36 250.815 21.0533 250.282 20.84C249.748 20.6267 249.168 20.52 248.542 20.52C247.915 20.52 247.335 20.6267 246.802 20.84C246.282 21.0533 245.822 21.36 245.422 21.76C245.022 22.16 244.708 22.6333 244.482 23.18C244.268 23.7267 244.162 24.3333 244.162 25C244.162 25.6533 244.268 26.26 244.482 26.82C244.708 27.3667 245.015 27.84 245.402 28.24C245.802 28.64 246.268 28.9467 246.802 29.16C247.335 29.3733 247.915 29.48 248.542 29.48ZM258.637 32V18H264.697C265.95 18 267.03 18.2067 267.937 18.62C268.843 19.02 269.543 19.6 270.037 20.36C270.53 21.12 270.777 22.0267 270.777 23.08C270.777 24.12 270.53 25.02 270.037 25.78C269.543 26.5267 268.843 27.1 267.937 27.5C267.03 27.9 265.95 28.1 264.697 28.1H260.437L261.877 26.68V32H258.637ZM267.537 32L264.037 26.92H267.497L271.037 32H267.537ZM261.877 27.04L260.437 25.52H264.517C265.517 25.52 266.263 25.3067 266.757 24.88C267.25 24.44 267.497 23.84 267.497 23.08C267.497 22.3067 267.25 21.7067 266.757 21.28C266.263 20.8533 265.517 20.64 264.517 20.64H260.437L261.877 19.1V27.04ZM271.504 32L277.744 18H280.944L287.204 32H283.804L278.684 19.64H279.964L274.824 32H271.504ZM274.624 29L275.484 26.54H282.684L283.564 29H274.624ZM288.656 27.14L288.036 18H291.756L291.136 27.14H288.656ZM289.896 32.16C289.336 32.16 288.876 31.98 288.516 31.62C288.156 31.26 287.976 30.8333 287.976 30.34C287.976 29.8333 288.156 29.4133 288.516 29.08C288.876 28.7333 289.336 28.56 289.896 28.56C290.469 28.56 290.929 28.7333 291.276 29.08C291.636 29.4133 291.816 29.8333 291.816 30.34C291.816 30.8333 291.636 31.26 291.276 31.62C290.929 31.98 290.469 32.16 289.896 32.16Z" fill="white"/>
</g>
<defs>
<filter id="filter0_d_15_138" x="0" y="0" width="328" height="59" filterUnits="userSpaceOnUse" color-interpolation-filters="sRGB">
<feFlood flood-opacity="0" result="BackgroundImageFix"/>
<feColorMatrix in="SourceAlpha" type="matrix" values="0 0 0 0 0 0 0 0 0 0 0 0 0 0 0 0 0 0 127 0" result="hardAlpha"/>
<feOffset dy="4"/>
<feGaussianBlur stdDeviation="2"/>
<feComposite in2="hardAlpha" operator="out"/>
<feColorMatrix type="matrix" values="0 0 0 0 0 0 0 0 0 0 0 0 0 0 0 0 0 0 0.25 0"/>
<feBlend mode="normal" in2="BackgroundImageFix" result="effect1_dropShadow_15_138"/>
<feBlend mode="normal" in="SourceGraphic" in2="effect1_dropShadow_15_138" result="shape"/>
</filter>
</defs>
</svg>
