<svg width="60" height="60" viewBox="0 0 60 60" fill="none" xmlns="http://www.w3.org/2000/svg">
<path d="M41.4286 12.7512C41.4286 13.0478 41.3448 13.3377 41.1878 13.5843C41.0308 13.831 40.8077 14.0232 40.5467 14.1367C40.2857 14.2502 39.9984 14.2799 39.7213 14.222C39.4442 14.1642 39.1896 14.0213 38.9898 13.8116C38.7901 13.6019 38.654 13.3347 38.5989 13.0438C38.5438 12.7529 38.572 12.4513 38.6802 12.1773C38.7883 11.9033 38.9714 11.6691 39.2063 11.5043C39.4413 11.3395 39.7175 11.2515 40 11.2515C40.3789 11.2515 40.7422 11.4095 41.0102 11.6908C41.2781 11.972 41.4286 12.3535 41.4286 12.7512ZM20 48.7426C20.2825 48.7426 20.5587 48.6547 20.7937 48.4899C21.0286 48.3251 21.2117 48.0909 21.3198 47.8169C21.428 47.5428 21.4562 47.2413 21.4011 46.9504C21.346 46.6595 21.2099 46.3923 21.0102 46.1826C20.8104 45.9728 20.5558 45.83 20.2787 45.7721C20.0016 45.7143 19.7143 45.744 19.4533 45.8575C19.1923 45.971 18.9692 46.1632 18.8122 46.4098C18.6552 46.6564 18.5714 46.9464 18.5714 47.243C18.5714 47.6407 18.7219 48.0221 18.9898 48.3034C19.2578 48.5846 19.6211 48.7426 20 48.7426ZM25.8643 33.6637C25.9828 33.9133 26.1652 34.1232 26.391 34.2699C26.6169 34.4167 26.8772 34.4944 27.1429 34.4944C27.4085 34.4944 27.6688 34.4167 27.8947 34.2699C28.1205 34.1232 28.3029 33.9133 28.4214 33.6637L30 30.3495L31.5786 33.6637C31.6971 33.9133 31.8795 34.1232 32.1053 34.2699C32.3312 34.4167 32.5915 34.4944 32.8571 34.4944C33.1228 34.4944 33.3831 34.4167 33.609 34.2699C33.8348 34.1232 34.0172 33.9133 34.1357 33.6637L36.9929 27.6651C37.1478 27.311 37.1654 26.9074 37.0418 26.5399C36.9182 26.1724 36.6631 25.8699 36.3307 25.6964C35.9983 25.5229 35.6145 25.492 35.2608 25.6104C34.9071 25.7287 34.6112 25.987 34.4357 26.3305L32.8571 29.6447L31.2786 26.3305C31.1601 26.0809 30.9777 25.871 30.7518 25.7242C30.526 25.5775 30.2656 25.4998 30 25.4998C29.7344 25.4998 29.474 25.5775 29.2482 25.7242C29.0223 25.871 28.8399 26.0809 28.7214 26.3305L27.1429 29.6447L25.5643 26.3305C25.4844 26.148 25.3705 25.9842 25.2292 25.8488C25.0879 25.7134 24.9221 25.6092 24.7417 25.5423C24.5613 25.4755 24.37 25.4473 24.179 25.4596C23.9881 25.4718 23.8014 25.5242 23.6301 25.6136C23.4588 25.703 23.3063 25.8276 23.1818 25.98C23.0572 26.1325 22.9631 26.3096 22.905 26.501C22.8469 26.6923 22.826 26.8939 22.8436 27.0939C22.8611 27.2939 22.9167 27.4882 23.0071 27.6651L25.8643 33.6637ZM41.5786 33.6637C41.6971 33.9133 41.8795 34.1232 42.1053 34.2699C42.3312 34.4167 42.5915 34.4944 42.8571 34.4944C43.1228 34.4944 43.3831 34.4167 43.609 34.2699C43.8348 34.1232 44.0172 33.9133 44.1357 33.6637L45.7143 30.3495L47.2929 33.6637C47.4113 33.9133 47.5938 34.1232 47.8196 34.2699C48.0455 34.4167 48.3058 34.4944 48.5714 34.4944C48.837 34.4944 49.0974 34.4167 49.3233 34.2699C49.5491 34.1232 49.7315 33.9133 49.85 33.6637L52.7071 27.6651C52.8621 27.311 52.8797 26.9074 52.7561 26.5399C52.6325 26.1724 52.3774 25.8699 52.045 25.6964C51.7126 25.5229 51.3288 25.492 50.9751 25.6104C50.6214 25.7287 50.3255 25.987 50.15 26.3305L48.5714 29.6447L46.9929 26.3305C46.8744 26.0809 46.692 25.871 46.4661 25.7242C46.2403 25.5775 45.9799 25.4998 45.7143 25.4998C45.4487 25.4998 45.1883 25.5775 44.9625 25.7242C44.7366 25.871 44.5542 26.0809 44.4357 26.3305L42.8571 29.6447L41.2786 26.3305C41.1031 25.987 40.8072 25.7287 40.4535 25.6104C40.0997 25.492 39.716 25.5229 39.3836 25.6964C39.0512 25.8699 38.7961 26.1724 38.6725 26.5399C38.5489 26.9074 38.5665 27.311 38.7214 27.6651L41.5786 33.6637ZM10.15 33.6637C10.2685 33.9133 10.4509 34.1232 10.6767 34.2699C10.9026 34.4167 11.163 34.4944 11.4286 34.4944C11.6942 34.4944 11.9545 34.4167 12.1804 34.2699C12.4063 34.1232 12.5887 33.9133 12.7071 33.6637L14.2857 30.3495L15.8643 33.6637C15.9828 33.9133 16.1652 34.1232 16.391 34.2699C16.6169 34.4167 16.8772 34.4944 17.1429 34.4944C17.4085 34.4944 17.6688 34.4167 17.8947 34.2699C18.1205 34.1232 18.3029 33.9133 18.4214 33.6637L21.2786 27.6651C21.369 27.4882 21.4246 27.2939 21.4422 27.0939C21.4597 26.8939 21.4388 26.6923 21.3807 26.501C21.3226 26.3096 21.2285 26.1325 21.1039 25.98C20.9794 25.8276 20.8269 25.703 20.6556 25.6136C20.4843 25.5242 20.2977 25.4718 20.1067 25.4596C19.9157 25.4473 19.7244 25.4755 19.544 25.5423C19.3636 25.6092 19.1978 25.7134 19.0565 25.8488C18.9152 25.9842 18.8013 26.148 18.7214 26.3305L17.1429 29.6447L15.5643 26.3305C15.4458 26.0809 15.2634 25.871 15.0375 25.7242C14.8117 25.5775 14.5513 25.4998 14.2857 25.4998C14.0201 25.4998 13.7597 25.5775 13.5339 25.7242C13.308 25.871 13.1256 26.0809 13.0071 26.3305L11.4286 29.6447L9.85 26.3305C9.77015 26.148 9.65619 25.9842 9.51489 25.8488C9.37359 25.7134 9.20782 25.6092 9.02743 25.5423C8.84703 25.4755 8.65568 25.4473 8.46473 25.4596C8.27378 25.4718 8.08711 25.5242 7.91581 25.6136C7.74451 25.703 7.59206 25.8276 7.4675 25.98C7.34295 26.1325 7.24883 26.3096 7.19073 26.501C7.13263 26.6923 7.11173 26.8939 7.12927 27.0939C7.14682 27.2939 7.20244 27.4882 7.29286 27.6651L10.15 33.6637ZM60 20.9992V38.9949C60 39.3927 59.8495 39.7741 59.5816 40.0553C59.3137 40.3366 58.9503 40.4946 58.5714 40.4946H56.7714C54.7351 46.2221 51.0801 51.1596 46.296 54.6457C41.5119 58.1318 35.8273 60 30.0036 60C24.1799 60 18.4952 58.1318 13.7111 54.6457C8.92708 51.1596 5.27206 46.2221 3.23571 40.4946H1.42857C1.04969 40.4946 0.686328 40.3366 0.418419 40.0553C0.15051 39.7741 0 39.3927 0 38.9949V20.9992C0 20.6015 0.15051 20.2201 0.418419 19.9388C0.686328 19.6576 1.04969 19.4996 1.42857 19.4996H3.22857C4.83003 14.9981 7.43834 10.9664 10.8339 7.744C14.2295 4.52159 18.3129 2.20277 22.7403 0.982781C27.1678 -0.237206 31.8096 -0.322646 36.2751 0.733655C40.7406 1.78996 44.8989 3.95707 48.4 7.05255L48.4714 7.12753C52.2016 10.4359 55.0576 14.6966 56.7643 19.4996H58.5714C58.9503 19.4996 59.3137 19.6576 59.5816 19.9388C59.8495 20.2201 60 20.6015 60 20.9992ZM47.4929 10.2168C46.5655 10.9737 45.5947 11.6699 44.5857 12.3013C44.3694 12.4361 44.123 12.5085 43.8714 12.5112C43.5597 12.5079 43.2575 12.3976 43.011 12.1971C42.7646 11.9967 42.5874 11.7171 42.5064 11.401C42.4255 11.0849 42.4453 10.7497 42.5628 10.4466C42.6802 10.1434 42.889 9.8889 43.1571 9.72191C43.8714 9.27202 44.5857 8.77714 45.2571 8.22227C42.8822 6.38582 40.2245 4.9909 37.4 4.09825C38.3448 5.28255 39.1661 6.56957 39.85 7.93734C39.9539 8.11162 40.0225 8.30647 40.0517 8.50978C40.0808 8.71309 40.0698 8.92052 40.0194 9.11918C39.9689 9.31783 39.8801 9.50348 39.7584 9.66458C39.6367 9.82568 39.4848 9.9588 39.312 10.0557C39.1393 10.1525 38.9494 10.211 38.7542 10.2276C38.5589 10.2442 38.3626 10.2184 38.1772 10.152C37.9919 10.0855 37.8215 9.97978 37.6768 9.8413C37.532 9.70282 37.4159 9.53457 37.3357 9.347C35.5643 6.0028 33.5286 3.9033 31.4286 3.23596V13.456C32.871 13.373 34.3045 13.1648 35.7143 12.8337C36.0732 12.7701 36.4417 12.8527 36.7446 13.0647C37.0474 13.2767 37.2617 13.6021 37.3438 13.9744C37.4258 14.3467 37.3694 14.7378 37.1861 15.0679C37.0027 15.3979 36.7062 15.6421 36.3571 15.7505C34.7368 16.1332 33.0876 16.3666 31.4286 16.4478V19.4996H40.5C40.3643 18.7948 40.2286 18.0974 40.0714 17.4226C40.0273 17.2306 40.0197 17.0313 40.049 16.8362C40.0782 16.6411 40.1438 16.454 40.242 16.2855C40.3402 16.117 40.469 15.9704 40.6211 15.8542C40.7732 15.7379 40.9457 15.6543 41.1286 15.608C41.3115 15.5617 41.5013 15.5537 41.6871 15.5844C41.873 15.6152 42.0513 15.684 42.2118 15.7871C42.3723 15.8901 42.5119 16.0253 42.6227 16.185C42.7334 16.3447 42.8131 16.5257 42.8571 16.7177C43.0643 17.6175 43.2429 18.5548 43.4071 19.4996H53.6929C52.2772 15.9785 50.1637 12.8141 47.4929 10.2168ZM21.5714 12.0014C23.8295 12.8236 26.1853 13.3132 28.5714 13.456V3.23596C25.9 4.09075 23.4 7.28499 21.5714 12.0014ZM22.6143 4.16574C19.8044 5.05029 17.1592 6.43235 14.7929 8.25226C16.0866 9.24788 17.4665 10.114 18.9143 10.8391C19.8047 8.42377 21.0534 6.17147 22.6143 4.16574ZM20.6143 14.8282C20.1607 16.3625 19.7887 17.922 19.5 19.4996H28.5714V16.5003C25.8572 16.3393 23.1784 15.7763 20.6143 14.8282ZM6.32143 19.4996H16.5929C16.9276 17.5375 17.3785 15.5992 17.9429 13.696C16.0185 12.7568 14.2 11.5949 12.5214 10.2318C9.85094 12.8235 7.73733 15.983 6.32143 19.4996ZM12.5 49.7774C13.4298 49.0205 14.4031 48.3243 15.4143 47.6929C15.5759 47.5694 15.7605 47.483 15.956 47.4392C16.1514 47.3953 16.3535 47.395 16.5491 47.4383C16.7447 47.4815 16.9295 47.5674 17.0914 47.6904C17.2534 47.8133 17.3891 47.9705 17.4895 48.1519C17.59 48.3333 17.6531 48.5349 17.6747 48.7435C17.6963 48.9521 17.676 49.1631 17.6151 49.363C17.5541 49.5628 17.4539 49.747 17.3209 49.9036C17.1879 50.0602 17.025 50.1858 16.8429 50.2723C16.1286 50.7221 15.4143 51.217 14.7429 51.7719C17.1178 53.6083 19.7755 55.0033 22.6 55.8959C21.6536 54.7129 20.8321 53.4257 20.15 52.0568C20.0461 51.8825 19.9775 51.6877 19.9483 51.4844C19.9192 51.2811 19.9302 51.0736 19.9806 50.875C20.0311 50.6763 20.1199 50.4907 20.2416 50.3296C20.3633 50.1685 20.5152 50.0354 20.688 49.9385C20.8608 49.8416 21.0506 49.7831 21.2459 49.7665C21.4411 49.75 21.6374 49.7757 21.8228 49.8422C22.0081 49.9086 22.1785 50.0144 22.3232 50.1529C22.468 50.2913 22.5841 50.4596 22.6643 50.6472C24.4357 53.9914 26.4714 56.0909 28.5714 56.7582V46.5381C27.129 46.6212 25.6955 46.8294 24.2857 47.1605C23.9268 47.2241 23.5583 47.1414 23.2554 46.9294C22.9526 46.7174 22.7383 46.3921 22.6562 46.0198C22.5742 45.6475 22.6306 45.2564 22.8139 44.9263C22.9973 44.5962 23.2938 44.3521 23.6429 44.2437C25.2632 43.8609 26.9124 43.6276 28.5714 43.5464V40.4946H19.5C19.6357 41.1994 19.7714 41.8967 19.9286 42.5716C19.9732 42.7636 19.9813 42.963 19.9523 43.1583C19.9232 43.3537 19.8577 43.541 19.7595 43.7097C19.6612 43.8783 19.5322 44.0249 19.3798 44.141C19.2274 44.2571 19.0546 44.3404 18.8714 44.3862C18.7598 44.3976 18.6474 44.3976 18.5357 44.3862C18.2192 44.3893 17.9107 44.282 17.6587 44.0811C17.4066 43.8803 17.2251 43.5972 17.1429 43.2764C16.9357 42.3766 16.7571 41.4394 16.5929 40.4946H6.30714C7.72245 44.014 9.83325 47.178 12.5 49.7774ZM38.4214 47.9928C36.1658 47.1706 33.8124 46.681 31.4286 46.5381V56.7432C34.0929 55.8809 36.5929 52.7017 38.4214 47.9928ZM37.3714 55.8359C40.1945 54.9466 42.8519 53.5569 45.2286 51.7269C43.9349 50.729 42.5551 49.8604 41.1071 49.1325C40.2041 51.5586 38.9435 53.8207 37.3714 55.8359ZM39.3857 45.166C39.8335 43.6306 40.2031 42.0712 40.4929 40.4946H31.4286V43.4939C34.1426 43.6564 36.8212 44.2193 39.3857 45.166ZM53.6714 40.4946H43.4071C43.0724 42.4567 42.6215 44.395 42.0571 46.2982C43.983 47.2345 45.8017 48.3966 47.4786 49.7624C50.1491 47.1706 52.2627 44.0112 53.6786 40.4946H53.6714ZM57.1429 22.4989H2.85714V37.4953H57.1429V22.4989Z" fill="black"/>
</svg>
