<svg width="173" height="39" viewBox="0 0 173 39" fill="none" xmlns="http://www.w3.org/2000/svg">
<path d="M13.472 31.384C11.7013 31.384 10.0693 31.1067 8.576 30.552C7.104 29.976 5.81333 29.1653 4.704 28.12C3.616 27.0747 2.76267 25.848 2.144 24.44C1.54667 23.032 1.248 21.4853 1.248 19.8C1.248 18.1147 1.54667 16.568 2.144 15.16C2.76267 13.752 3.62667 12.5253 4.736 11.48C5.84533 10.4347 7.14667 9.63467 8.64 9.08C10.1333 8.504 11.776 8.216 13.568 8.216C15.552 8.216 17.3333 8.54667 18.912 9.208C20.512 9.86933 21.856 10.8293 22.944 12.088L19.616 15.16C18.8053 14.3067 17.92 13.6773 16.96 13.272C16 12.8453 14.9547 12.632 13.824 12.632C12.736 12.632 11.744 12.8027 10.848 13.144C9.952 13.4853 9.17333 13.976 8.512 14.616C7.872 15.256 7.37067 16.0133 7.008 16.888C6.66667 17.7627 6.496 18.7333 6.496 19.8C6.496 20.8453 6.66667 21.8053 7.008 22.68C7.37067 23.5547 7.872 24.3227 8.512 24.984C9.17333 25.624 9.94133 26.1147 10.816 26.456C11.712 26.7973 12.6933 26.968 13.76 26.968C14.784 26.968 15.776 26.808 16.736 26.488C17.7173 26.1467 18.6667 25.5813 19.584 24.792L22.528 28.536C21.312 29.4533 19.8933 30.1573 18.272 30.648C16.672 31.1387 15.072 31.384 13.472 31.384ZM17.792 27.864V19.448H22.528V28.536L17.792 27.864ZM35.5355 31.256C33.5728 31.256 31.8448 30.872 30.3515 30.104C28.8795 29.336 27.7382 28.2907 26.9275 26.968C26.1168 25.624 25.7115 24.0987 25.7115 22.392C25.7115 20.664 26.1062 19.1387 26.8955 17.816C27.7062 16.472 28.8048 15.4267 30.1915 14.68C31.5782 13.912 33.1462 13.528 34.8955 13.528C36.5808 13.528 38.0955 13.8907 39.4395 14.616C40.8048 15.32 41.8822 16.344 42.6715 17.688C43.4608 19.0107 43.8555 20.6 43.8555 22.456C43.8555 22.648 43.8448 22.872 43.8235 23.128C43.8022 23.3627 43.7808 23.5867 43.7595 23.8H29.7755V20.888H41.1355L39.2155 21.752C39.2155 20.856 39.0342 20.0773 38.6715 19.416C38.3088 18.7547 37.8075 18.2427 37.1675 17.88C36.5275 17.496 35.7808 17.304 34.9275 17.304C34.0742 17.304 33.3168 17.496 32.6555 17.88C32.0155 18.2427 31.5142 18.7653 31.1515 19.448C30.7888 20.1093 30.6075 20.8987 30.6075 21.816V22.584C30.6075 23.5227 30.8102 24.3547 31.2155 25.08C31.6422 25.784 32.2288 26.328 32.9755 26.712C33.7435 27.0747 34.6395 27.256 35.6635 27.256C36.5808 27.256 37.3808 27.1173 38.0635 26.84C38.7675 26.5627 39.4075 26.1467 39.9835 25.592L42.6395 28.472C41.8502 29.368 40.8582 30.0613 39.6635 30.552C38.4688 31.0213 37.0928 31.256 35.5355 31.256ZM52.971 31.256C51.499 31.256 50.0803 31.0853 48.715 30.744C47.371 30.3813 46.3043 29.9333 45.515 29.4L47.179 25.816C47.9683 26.3067 48.8963 26.712 49.963 27.032C51.051 27.3307 52.1177 27.48 53.163 27.48C54.315 27.48 55.1257 27.3413 55.595 27.064C56.0857 26.7867 56.331 26.4027 56.331 25.912C56.331 25.5067 56.139 25.208 55.755 25.016C55.3923 24.8027 54.9017 24.6427 54.283 24.536C53.6643 24.4293 52.9817 24.3227 52.235 24.216C51.5097 24.1093 50.7737 23.9707 50.027 23.8C49.2803 23.608 48.5977 23.3307 47.979 22.968C47.3603 22.6053 46.859 22.1147 46.475 21.496C46.1123 20.8773 45.931 20.0773 45.931 19.096C45.931 18.008 46.2403 17.048 46.859 16.216C47.499 15.384 48.4163 14.7333 49.611 14.264C50.8057 13.7733 52.235 13.528 53.899 13.528C55.0723 13.528 56.267 13.656 57.483 13.912C58.699 14.168 59.7123 14.5413 60.523 15.032L58.859 18.584C58.027 18.0933 57.1843 17.7627 56.331 17.592C55.499 17.4 54.6883 17.304 53.899 17.304C52.7897 17.304 51.979 17.4533 51.467 17.752C50.955 18.0507 50.699 18.4347 50.699 18.904C50.699 19.3307 50.8803 19.6507 51.243 19.864C51.627 20.0773 52.1283 20.248 52.747 20.376C53.3657 20.504 54.0377 20.6213 54.763 20.728C55.5097 20.8133 56.2563 20.952 57.003 21.144C57.7497 21.336 58.4217 21.6133 59.019 21.976C59.6377 22.3173 60.139 22.7973 60.523 23.416C60.907 24.0133 61.099 24.8027 61.099 25.784C61.099 26.8507 60.779 27.8 60.139 28.632C59.499 29.4427 58.571 30.0827 57.355 30.552C56.1603 31.0213 54.699 31.256 52.971 31.256ZM71.219 31.256C69.1923 31.256 67.6137 30.744 66.483 29.72C65.3523 28.6747 64.787 27.128 64.787 25.08V9.976H69.779V25.016C69.779 25.7413 69.971 26.3067 70.355 26.712C70.739 27.096 71.2617 27.288 71.923 27.288C72.7123 27.288 73.3843 27.0747 73.939 26.648L75.283 30.168C74.771 30.5307 74.1523 30.808 73.427 31C72.723 31.1707 71.987 31.256 71.219 31.256ZM62.131 18.008V14.168H74.067V18.008H62.131ZM85.746 31.256C83.9113 31.256 82.2793 30.872 80.85 30.104C79.442 29.336 78.322 28.2907 77.49 26.968C76.6793 25.624 76.274 24.0987 76.274 22.392C76.274 20.664 76.6793 19.1387 77.49 17.816C78.322 16.472 79.442 15.4267 80.85 14.68C82.2793 13.912 83.9113 13.528 85.746 13.528C87.5593 13.528 89.1807 13.912 90.61 14.68C92.0393 15.4267 93.1593 16.4613 93.97 17.784C94.7807 19.1067 95.186 20.6427 95.186 22.392C95.186 24.0987 94.7807 25.624 93.97 26.968C93.1593 28.2907 92.0393 29.336 90.61 30.104C89.1807 30.872 87.5593 31.256 85.746 31.256ZM85.746 27.16C86.578 27.16 87.3247 26.968 87.986 26.584C88.6473 26.2 89.17 25.656 89.554 24.952C89.938 24.2267 90.13 23.3733 90.13 22.392C90.13 21.3893 89.938 20.536 89.554 19.832C89.17 19.128 88.6473 18.584 87.986 18.2C87.3247 17.816 86.578 17.624 85.746 17.624C84.914 17.624 84.1673 17.816 83.506 18.2C82.8447 18.584 82.3113 19.128 81.906 19.832C81.522 20.536 81.33 21.3893 81.33 22.392C81.33 23.3733 81.522 24.2267 81.906 24.952C82.3113 25.656 82.8447 26.2 83.506 26.584C84.1673 26.968 84.914 27.16 85.746 27.16ZM98.5228 31V13.784H103.291V18.648L102.619 17.24C103.131 16.024 103.952 15.1067 105.083 14.488C106.213 13.848 107.589 13.528 109.211 13.528V18.136C108.997 18.1147 108.805 18.104 108.635 18.104C108.464 18.0827 108.283 18.072 108.091 18.072C106.725 18.072 105.616 18.4667 104.763 19.256C103.931 20.024 103.515 21.2293 103.515 22.872V31H98.5228Z" fill="white"/>
<path d="M129.114 31.448C127.322 31.448 125.669 31.16 124.154 30.584C122.639 30.008 121.317 29.1973 120.186 28.152C119.077 27.0853 118.213 25.848 117.594 24.44C116.975 23.032 116.666 21.4853 116.666 19.8C116.666 18.1147 116.975 16.568 117.594 15.16C118.213 13.752 119.077 12.5253 120.186 11.48C121.317 10.4133 122.639 9.592 124.154 9.016C125.669 8.44 127.322 8.152 129.114 8.152C130.927 8.152 132.581 8.44 134.074 9.016C135.589 9.592 136.901 10.4133 138.01 11.48C139.119 12.5253 139.983 13.752 140.602 15.16C141.242 16.568 141.562 18.1147 141.562 19.8C141.562 21.4853 141.242 23.0427 140.602 24.472C139.983 25.88 139.119 27.1067 138.01 28.152C136.901 29.1973 135.589 30.008 134.074 30.584C132.581 31.16 130.927 31.448 129.114 31.448ZM129.114 26.2C129.967 26.2 130.757 26.0507 131.482 25.752C132.229 25.4533 132.869 25.0267 133.402 24.472C133.957 23.896 134.383 23.2133 134.682 22.424C135.002 21.6347 135.162 20.76 135.162 19.8C135.162 18.8187 135.002 17.944 134.682 17.176C134.383 16.3867 133.957 15.7147 133.402 15.16C132.869 14.584 132.229 14.1467 131.482 13.848C130.757 13.5493 129.967 13.4 129.114 13.4C128.261 13.4 127.461 13.5493 126.714 13.848C125.989 14.1467 125.349 14.584 124.794 15.16C124.261 15.7147 123.834 16.3867 123.514 17.176C123.215 17.944 123.066 18.8187 123.066 19.8C123.066 20.76 123.215 21.6347 123.514 22.424C123.834 23.2133 124.261 23.896 124.794 24.472C125.349 25.0267 125.989 25.4533 126.714 25.752C127.461 26.0507 128.261 26.2 129.114 26.2ZM144.881 31V8.6H150.097L162.449 23.512H159.985V8.6H166.193V31H160.977L148.625 16.088H151.089V31H144.881Z" fill="#1E1E1E"/>
</svg>
